<mxfile host="app.diagrams.net" modified="2024-03-14T16:21:05.126Z" agent="Mozilla/5.0 (Windows NT 10.0; Win64; x64) AppleWebKit/537.36 (KHTML, like Gecko) Chrome/122.0.0.0 Safari/537.36" etag="5DNfwUsxx0KllfLwu-n1" version="24.0.4" type="github">
  <diagram name="Page-1" id="4y5SWqxGncG3rMQPPUBM">
    <mxGraphModel dx="700" dy="412" grid="1" gridSize="10" guides="1" tooltips="1" connect="1" arrows="1" fold="1" page="1" pageScale="1" pageWidth="827" pageHeight="1169" math="0" shadow="0">
      <root>
        <mxCell id="0" />
        <mxCell id="1" parent="0" />
        <mxCell id="leUaTxTquXKBzJ7-gh0m-32" value="" style="rounded=1;whiteSpace=wrap;html=1;dashed=1;fillColor=#AEB8FE;strokeColor=#6c8ebf;" parent="1" vertex="1">
          <mxGeometry x="210" y="230" width="350" height="260" as="geometry" />
        </mxCell>
        <mxCell id="jqJchvidNVKzbLp1YPdq-14" style="edgeStyle=orthogonalEdgeStyle;rounded=0;orthogonalLoop=1;jettySize=auto;html=1;exitX=0.25;exitY=1;exitDx=0;exitDy=0;entryX=0.5;entryY=0;entryDx=0;entryDy=0;startArrow=classic;startFill=1;dashed=1;" edge="1" parent="1" source="leUaTxTquXKBzJ7-gh0m-2" target="jqJchvidNVKzbLp1YPdq-12">
          <mxGeometry relative="1" as="geometry" />
        </mxCell>
        <mxCell id="jqJchvidNVKzbLp1YPdq-15" style="edgeStyle=orthogonalEdgeStyle;rounded=0;orthogonalLoop=1;jettySize=auto;html=1;exitX=0.5;exitY=1;exitDx=0;exitDy=0;entryX=0.5;entryY=0;entryDx=0;entryDy=0;startArrow=classic;startFill=1;dashed=1;" edge="1" parent="1" source="leUaTxTquXKBzJ7-gh0m-2" target="jqJchvidNVKzbLp1YPdq-13">
          <mxGeometry relative="1" as="geometry" />
        </mxCell>
        <mxCell id="leUaTxTquXKBzJ7-gh0m-2" value="&lt;font style=&quot;font-size: 9px;&quot;&gt;onos-operator&lt;/font&gt;" style="rounded=0;whiteSpace=wrap;html=1;fillColor=#F1F2F6;" parent="1" vertex="1">
          <mxGeometry x="250" y="470" width="60" height="30" as="geometry" />
        </mxCell>
        <mxCell id="leUaTxTquXKBzJ7-gh0m-6" value="&lt;font style=&quot;font-size: 9px;&quot;&gt;onos-cli&lt;/font&gt;&lt;span style=&quot;color: rgba(0, 0, 0, 0); font-family: monospace; font-size: 0px; text-align: start; text-wrap: nowrap;&quot;&gt;%3CmxGraphModel%3E%3Croot%3E%3CmxCell%20id%3D%220%22%2F%3E%3CmxCell%20id%3D%221%22%20parent%3D%220%22%2F%3E%3CmxCell%20id%3D%222%22%20value%3D%22%26lt%3Bfont%20style%3D%26quot%3Bfont-size%3A%209px%3B%26quot%3B%26gt%3Bonos-operator%26lt%3B%2Ffont%26gt%3B%22%20style%3D%22rounded%3D0%3BwhiteSpace%3Dwrap%3Bhtml%3D1%3B%22%20vertex%3D%221%22%20parent%3D%221%22%3E%3CmxGeometry%20x%3D%22230%22%20y%3D%22430%22%20width%3D%2260%22%20height%3D%2230%22%20as%3D%22geometry%22%2F%3E%3C%2FmxCell%3E%3C%2Froot%3E%3C%2FmxGraphModel%3E&lt;/span&gt;" style="rounded=0;whiteSpace=wrap;html=1;fillColor=#F1F2F6;" parent="1" vertex="1">
          <mxGeometry x="230" y="390" width="60" height="30" as="geometry" />
        </mxCell>
        <mxCell id="leUaTxTquXKBzJ7-gh0m-7" value="&lt;font size=&quot;1&quot;&gt;atomix&lt;/font&gt;&lt;span style=&quot;color: rgba(0, 0, 0, 0); font-family: monospace; font-size: 0px; text-align: start; text-wrap: nowrap;&quot;&gt;%3CmxGraphModel%3E%3Croot%3E%3CmxCell%20id%3D%220%22%2F%3E%3CmxCell%20id%3D%221%22%20parent%3D%220%22%2F%3E%3CmxCell%20id%3D%222%22%20value%3D%22%26lt%3Bfont%20style%3D%26quot%3Bfont-size%3A%209px%3B%26quot%3B%26gt%3Bonos-cli%26lt%3B%2Ffont%26gt%3B%26lt%3Bspan%20style%3D%26quot%3Bcolor%3A%20rgba(0%2C%200%2C%200%2C%200)%3B%20font-family%3A%20monospace%3B%20font-size%3A%200px%3B%20text-align%3A%20start%3B%20text-wrap%3A%20nowrap%3B%26quot%3B%26gt%3B%253CmxGraphModel%253E%253Croot%253E%253CmxCell%2520id%253D%25220%2522%252F%253E%253CmxCell%2520id%253D%25221%2522%2520parent%253D%25220%2522%252F%253E%253CmxCell%2520id%253D%25222%2522%2520value%253D%2522%2526lt%253Bfont%2520style%253D%2526quot%253Bfont-size%253A%25209px%253B%2526quot%253B%2526gt%253Bonos-operator%2526lt%253B%252Ffont%2526gt%253B%2522%2520style%253D%2522rounded%253D0%253BwhiteSpace%253Dwrap%253Bhtml%253D1%253B%2522%2520vertex%253D%25221%2522%2520parent%253D%25221%2522%253E%253CmxGeometry%2520x%253D%2522230%2522%2520y%253D%2522430%2522%2520width%253D%252260%2522%2520height%253D%252230%2522%2520as%253D%2522geometry%2522%252F%253E%253C%252FmxCell%253E%253C%252Froot%253E%253C%252FmxGraphModel%253E%26lt%3B%2Fspan%26gt%3B%22%20style%3D%22rounded%3D0%3BwhiteSpace%3Dwrap%3Bhtml%3D1%3B%22%20vertex%3D%221%22%20parent%3D%221%22%3E%3CmxGeometry%20x%3D%22230%22%20y%3D%22390%22%20width%3D%2260%22%20height%3D%2230%22%20as%3D%22geometry%22%2F%3E%3C%2FmxCell%3E%3C%2Froot%3E%3C%2FmxGraphModel%3E&lt;/span&gt;" style="rounded=0;whiteSpace=wrap;html=1;fillColor=#F1F2F6;" parent="1" vertex="1">
          <mxGeometry x="230" y="350" width="60" height="30" as="geometry" />
        </mxCell>
        <mxCell id="leUaTxTquXKBzJ7-gh0m-8" value="&lt;font size=&quot;1&quot;&gt;onos-uenib&lt;/font&gt;" style="rounded=0;whiteSpace=wrap;html=1;fillColor=#F1F2F6;" parent="1" vertex="1">
          <mxGeometry x="230" y="310" width="60" height="30" as="geometry" />
        </mxCell>
        <mxCell id="leUaTxTquXKBzJ7-gh0m-9" value="&lt;font style=&quot;font-size: 9px;&quot;&gt;onos-e2-sm&lt;/font&gt;" style="rounded=0;whiteSpace=wrap;html=1;dashed=1;fillColor=#F1F2F6;" parent="1" vertex="1">
          <mxGeometry x="334" y="455" width="60" height="30" as="geometry" />
        </mxCell>
        <mxCell id="leUaTxTquXKBzJ7-gh0m-13" value="&lt;font style=&quot;font-size: 9px;&quot;&gt;A1t&lt;/font&gt;" style="rounded=0;whiteSpace=wrap;html=1;fillColor=#F1F2F6;" parent="1" vertex="1">
          <mxGeometry x="510" y="380" width="60" height="30" as="geometry" />
        </mxCell>
        <mxCell id="jqJchvidNVKzbLp1YPdq-17" style="edgeStyle=orthogonalEdgeStyle;rounded=0;orthogonalLoop=1;jettySize=auto;html=1;exitX=1;exitY=0.25;exitDx=0;exitDy=0;entryX=0;entryY=0.5;entryDx=0;entryDy=0;dashed=1;startArrow=classic;startFill=1;" edge="1" parent="1" source="leUaTxTquXKBzJ7-gh0m-14" target="jqJchvidNVKzbLp1YPdq-16">
          <mxGeometry relative="1" as="geometry">
            <Array as="points">
              <mxPoint x="588" y="336" />
              <mxPoint x="588" y="321" />
            </Array>
          </mxGeometry>
        </mxCell>
        <mxCell id="jqJchvidNVKzbLp1YPdq-19" style="edgeStyle=orthogonalEdgeStyle;rounded=0;orthogonalLoop=1;jettySize=auto;html=1;exitX=1;exitY=0.5;exitDx=0;exitDy=0;entryX=0;entryY=0.5;entryDx=0;entryDy=0;dashed=1;startArrow=classic;startFill=1;" edge="1" parent="1" source="leUaTxTquXKBzJ7-gh0m-14" target="jqJchvidNVKzbLp1YPdq-2">
          <mxGeometry relative="1" as="geometry">
            <mxPoint x="588" y="360" as="targetPoint" />
            <Array as="points">
              <mxPoint x="588" y="343" />
              <mxPoint x="588" y="362" />
              <mxPoint x="598" y="362" />
            </Array>
          </mxGeometry>
        </mxCell>
        <mxCell id="leUaTxTquXKBzJ7-gh0m-14" value="&lt;font style=&quot;font-size: 9px;&quot;&gt;onos-exporter&lt;/font&gt;" style="rounded=0;whiteSpace=wrap;html=1;fillColor=#F1F2F6;" parent="1" vertex="1">
          <mxGeometry x="510" y="328" width="60" height="30" as="geometry" />
        </mxCell>
        <mxCell id="leUaTxTquXKBzJ7-gh0m-15" value="&lt;font style=&quot;font-size: 9px;&quot;&gt;onos-config&lt;/font&gt;" style="rounded=0;whiteSpace=wrap;html=1;fillColor=#F1F2F6;" parent="1" vertex="1">
          <mxGeometry x="510" y="279" width="60" height="30" as="geometry" />
        </mxCell>
        <mxCell id="leUaTxTquXKBzJ7-gh0m-16" value="&lt;font size=&quot;1&quot;&gt;onos-topo (R-NIB)&lt;/font&gt;" style="rounded=0;whiteSpace=wrap;html=1;fillColor=#F1F2F6;" parent="1" vertex="1">
          <mxGeometry x="230" y="270" width="60" height="30" as="geometry" />
        </mxCell>
        <mxCell id="leUaTxTquXKBzJ7-gh0m-19" value="onos-ric-sdk-py" style="rounded=0;whiteSpace=wrap;html=1;fillColor=#F1F2F6;" parent="1" vertex="1">
          <mxGeometry x="310" y="220" width="90" height="30" as="geometry" />
        </mxCell>
        <mxCell id="leUaTxTquXKBzJ7-gh0m-17" value="onos-ric-sdk-go" style="rounded=0;whiteSpace=wrap;html=1;fillColor=#F1F2F6;" parent="1" vertex="1">
          <mxGeometry x="420" y="220" width="90" height="30" as="geometry" />
        </mxCell>
        <mxCell id="leUaTxTquXKBzJ7-gh0m-10" value="&lt;font style=&quot;font-size: 9px;&quot;&gt;onos-e2t&lt;/font&gt;" style="rounded=0;whiteSpace=wrap;html=1;fillColor=#F1F2F6;" parent="1" vertex="1">
          <mxGeometry x="454" y="465" width="60" height="30" as="geometry" />
        </mxCell>
        <mxCell id="leUaTxTquXKBzJ7-gh0m-24" value="" style="endArrow=none;dashed=1;html=1;dashPattern=1 3;strokeWidth=2;rounded=0;exitX=0.5;exitY=0;exitDx=0;exitDy=0;fillColor=#f5f5f5;strokeColor=#666666;" parent="1" edge="1">
          <mxGeometry width="50" height="50" relative="1" as="geometry">
            <mxPoint x="489" y="465" as="sourcePoint" />
            <mxPoint x="479" y="250" as="targetPoint" />
          </mxGeometry>
        </mxCell>
        <mxCell id="leUaTxTquXKBzJ7-gh0m-25" value="" style="endArrow=none;dashed=1;html=1;dashPattern=1 3;strokeWidth=2;rounded=0;exitX=0.5;exitY=0;exitDx=0;exitDy=0;entryX=0.5;entryY=1;entryDx=0;entryDy=0;fillColor=#f5f5f5;strokeColor=#666666;" parent="1" source="leUaTxTquXKBzJ7-gh0m-10" target="leUaTxTquXKBzJ7-gh0m-19" edge="1">
          <mxGeometry width="50" height="50" relative="1" as="geometry">
            <mxPoint x="410" y="360" as="sourcePoint" />
            <mxPoint x="460" y="310" as="targetPoint" />
          </mxGeometry>
        </mxCell>
        <mxCell id="leUaTxTquXKBzJ7-gh0m-26" value="" style="endArrow=none;dashed=1;html=1;dashPattern=1 3;strokeWidth=2;rounded=0;entryX=1;entryY=0.5;entryDx=0;entryDy=0;exitX=0.5;exitY=0;exitDx=0;exitDy=0;fillColor=#f5f5f5;strokeColor=#666666;" parent="1" source="leUaTxTquXKBzJ7-gh0m-10" target="leUaTxTquXKBzJ7-gh0m-16" edge="1">
          <mxGeometry width="50" height="50" relative="1" as="geometry">
            <mxPoint x="410" y="360" as="sourcePoint" />
            <mxPoint x="460" y="310" as="targetPoint" />
          </mxGeometry>
        </mxCell>
        <mxCell id="leUaTxTquXKBzJ7-gh0m-27" value="" style="endArrow=none;dashed=1;html=1;dashPattern=1 3;strokeWidth=2;rounded=0;entryX=0.5;entryY=1;entryDx=0;entryDy=0;exitX=1;exitY=0.5;exitDx=0;exitDy=0;fillColor=#f5f5f5;strokeColor=#666666;" parent="1" source="leUaTxTquXKBzJ7-gh0m-8" target="leUaTxTquXKBzJ7-gh0m-17" edge="1">
          <mxGeometry width="50" height="50" relative="1" as="geometry">
            <mxPoint x="410" y="360" as="sourcePoint" />
            <mxPoint x="460" y="310" as="targetPoint" />
          </mxGeometry>
        </mxCell>
        <mxCell id="leUaTxTquXKBzJ7-gh0m-28" value="" style="endArrow=none;dashed=1;html=1;dashPattern=1 3;strokeWidth=2;rounded=0;entryX=0.5;entryY=1;entryDx=0;entryDy=0;exitX=1;exitY=0.5;exitDx=0;exitDy=0;fillColor=#f5f5f5;strokeColor=#666666;" parent="1" source="leUaTxTquXKBzJ7-gh0m-8" target="leUaTxTquXKBzJ7-gh0m-19" edge="1">
          <mxGeometry width="50" height="50" relative="1" as="geometry">
            <mxPoint x="410" y="360" as="sourcePoint" />
            <mxPoint x="460" y="310" as="targetPoint" />
          </mxGeometry>
        </mxCell>
        <mxCell id="leUaTxTquXKBzJ7-gh0m-31" value="" style="shape=flexArrow;endArrow=classic;html=1;rounded=0;endWidth=8.4;endSize=6.16;fillColor=#f5f5f5;strokeColor=#666666;" parent="1" edge="1">
          <mxGeometry width="50" height="50" relative="1" as="geometry">
            <mxPoint x="404" y="469.8" as="sourcePoint" />
            <mxPoint x="444" y="469.8" as="targetPoint" />
          </mxGeometry>
        </mxCell>
        <mxCell id="jqJchvidNVKzbLp1YPdq-2" value="" style="shape=image;verticalLabelPosition=bottom;labelBackgroundColor=default;verticalAlign=top;aspect=fixed;imageAspect=0;image=https://upload.wikimedia.org/wikipedia/commons/thumb/3/3b/Grafana_icon.svg/1969px-Grafana_icon.svg.png;" vertex="1" parent="1">
          <mxGeometry x="608" y="350" width="23.19" height="24.12" as="geometry" />
        </mxCell>
        <mxCell id="jqJchvidNVKzbLp1YPdq-8" style="edgeStyle=orthogonalEdgeStyle;rounded=0;orthogonalLoop=1;jettySize=auto;html=1;exitX=1;exitY=0.75;exitDx=0;exitDy=0;entryX=0;entryY=0.5;entryDx=0;entryDy=0;" edge="1" parent="1" source="jqJchvidNVKzbLp1YPdq-7" target="leUaTxTquXKBzJ7-gh0m-6">
          <mxGeometry relative="1" as="geometry" />
        </mxCell>
        <mxCell id="jqJchvidNVKzbLp1YPdq-7" value="" style="shape=actor;whiteSpace=wrap;html=1;" vertex="1" parent="1">
          <mxGeometry x="155" y="375" width="30" height="40" as="geometry" />
        </mxCell>
        <mxCell id="jqJchvidNVKzbLp1YPdq-12" value="" style="shape=image;verticalLabelPosition=bottom;labelBackgroundColor=default;verticalAlign=top;aspect=fixed;imageAspect=0;image=https://static-00.iconduck.com/assets.00/kubernetes-icon-2048x1995-r1q3f8n7.png;" vertex="1" parent="1">
          <mxGeometry x="220" y="535" width="35.93" height="35" as="geometry" />
        </mxCell>
        <mxCell id="jqJchvidNVKzbLp1YPdq-13" value="" style="shape=image;verticalLabelPosition=bottom;labelBackgroundColor=default;verticalAlign=top;aspect=fixed;imageAspect=0;image=https://helm.sh/img/helm.svg;" vertex="1" parent="1">
          <mxGeometry x="290" y="535.22" width="35" height="40.41" as="geometry" />
        </mxCell>
        <mxCell id="jqJchvidNVKzbLp1YPdq-16" value="" style="shape=image;verticalLabelPosition=bottom;labelBackgroundColor=default;verticalAlign=top;aspect=fixed;imageAspect=0;image=https://static-00.iconduck.com/assets.00/prometheus-icon-511x512-1vmxbcxr.png;" vertex="1" parent="1">
          <mxGeometry x="608" y="310" width="21" height="21.04" as="geometry" />
        </mxCell>
      </root>
    </mxGraphModel>
  </diagram>
</mxfile>
